HIERARCHY
ROOT Hips
{
	OFFSET 0.000000 0.000000 0.000000
	CHANNELS 6 Xposition Yposition Zposition Zrotation Yrotation Xrotation 
	JOINT LHipJoint
	{
		OFFSET 0.000000 0.000000 0.000000
		CHANNELS 3 Zrotation Yrotation Xrotation
		JOINT LeftUpLeg
		{
			OFFSET 1.363060 -1.794630 0.839290
			CHANNELS 3 Zrotation Yrotation Xrotation
			JOINT LeftLeg
			{
				OFFSET 2.448110 -6.726130 0.000000
				CHANNELS 3 Zrotation Yrotation Xrotation
				JOINT LeftFoot
				{
					OFFSET 2.562200 -7.039590 0.000000
					CHANNELS 3 Zrotation Yrotation Xrotation
					JOINT LeftToeBase
					{
						OFFSET 0.157640 -0.433110 2.322550
						CHANNELS 3 Zrotation Yrotation Xrotation
						End Site
						{
							OFFSET 0.000000 0.000000 0.000000
						}
					}
				}
			}
		}
	}
	JOINT RHipJoint
	{
		OFFSET 0.000000 0.000000 0.000000
		CHANNELS 3 Zrotation Yrotation Xrotation
		JOINT RightUpLeg
		{
			OFFSET -1.305520 -1.794630 0.839290
			CHANNELS 3 Zrotation Yrotation Xrotation
			JOINT RightLeg
			{
				OFFSET -2.542530 -6.985550 0.000000
				CHANNELS 3 Zrotation Yrotation Xrotation
				JOINT RightFoot
				{
					OFFSET -2.568260 -7.056230 0.000000
					CHANNELS 3 Zrotation Yrotation Xrotation
					JOINT RightToeBase
					{
						OFFSET -0.164730 -0.452590 2.363150
						CHANNELS 3 Zrotation Yrotation Xrotation
						End Site
						{
							OFFSET 0.000000 0.000000 0.000000
						}
					}
				}
			}
		}
	}
	JOINT LowerBack
	{
		OFFSET 0.000000 0.000000 0.000000
		CHANNELS 3 Zrotation Yrotation Xrotation
		JOINT Spine
		{
			OFFSET 0.028270 2.035590 -0.193380
			CHANNELS 3 Zrotation Yrotation Xrotation
			JOINT Spine1
			{
				OFFSET 0.056720 2.048850 -0.042750
				CHANNELS 3 Zrotation Yrotation Xrotation
				JOINT Neck
				{
					OFFSET 0.000000 0.000000 0.000000
					CHANNELS 3 Zrotation Yrotation Xrotation
					JOINT Neck1
					{
						OFFSET -0.054170 1.746240 0.172020
						CHANNELS 3 Zrotation Yrotation Xrotation
						JOINT Head
						{
							OFFSET 0.104070 1.761360 -0.123970
							CHANNELS 3 Zrotation Yrotation Xrotation
							End Site
							{
								OFFSET 0.000000 0.000000 0.000000
							}
						}
					}
				}
				JOINT LeftShoulder
				{
					OFFSET 0.000000 0.000000 0.000000
					CHANNELS 3 Zrotation Yrotation Xrotation
					JOINT LeftArm
					{
						OFFSET 3.362410 1.200890 -0.311210
						CHANNELS 3 Zrotation Yrotation Xrotation
						JOINT LeftForeArm
						{
							OFFSET 4.983000 -0.000000 -0.000000
							CHANNELS 3 Zrotation Yrotation Xrotation
							JOINT LeftHand
							{
								OFFSET 3.483560 -0.000000 -0.000000
								CHANNELS 3 Zrotation Yrotation Xrotation
								JOINT LeftFingerBase
								{
									OFFSET 0.000000 0.000000 0.000000
									CHANNELS 3 Zrotation Yrotation Xrotation
									JOINT LeftHandIndex1
									{
										OFFSET 0.715260 -0.000000 -0.000000
										CHANNELS 3 Zrotation Yrotation Xrotation
										End Site
										{
											OFFSET 0.000000 0.000000 0.000000
										}
									}
								}
								JOINT LThumb
								{
									OFFSET 0.000000 0.000000 0.000000
									CHANNELS 3 Zrotation Yrotation Xrotation
									End Site
									{
										OFFSET 0.000000 0.000000 0.000000
									}
								}
							}
						}
					}
				}
				JOINT RightShoulder
				{
					OFFSET 0.000000 0.000000 0.000000
					CHANNELS 3 Zrotation Yrotation Xrotation
					JOINT RightArm
					{
						OFFSET -3.136600 1.374050 -0.404650
						CHANNELS 3 Zrotation Yrotation Xrotation
						JOINT RightForeArm
						{
							OFFSET -5.241900 -0.000000 -0.000000
							CHANNELS 3 Zrotation Yrotation Xrotation
							JOINT RightHand
							{
								OFFSET -3.444170 -0.000000 -0.000000
								CHANNELS 3 Zrotation Yrotation Xrotation
								JOINT RightFingerBase
								{
									OFFSET 0.000000 0.000000 0.000000
									CHANNELS 3 Zrotation Yrotation Xrotation
									JOINT RightHandIndex1
									{
										OFFSET -0.622530 -0.000000 -0.000000
										CHANNELS 3 Zrotation Yrotation Xrotation
										End Site
										{
											OFFSET 0.000000 0.000000 0.000000
										}
									}
								}
								JOINT RThumb
								{
									OFFSET 0.000000 0.000000 0.000000
									CHANNELS 3 Zrotation Yrotation Xrotation
									End Site
									{
										OFFSET 0.000000 0.000000 0.000000
									}
								}
							}
						}
					}
				}
			}
		}
	}
}
MOTION
Frames: 9
Frame Time: 0.033333
-0.032003 17.194032 -0.032003 -0.084208 -20.222473 4.532707 -0.121773 14.380627 11.581691 -18.986261 -17.130526 -10.823340 24.261120 -21.821725 -29.258669 -3.395439 10.337573 83.208855 0.000000 0.000000 0.000000 1.528344 -28.628450 -12.090810 46.960267 14.748165 -2.727372 -25.036188 5.802350 38.907179 -2.020748 14.363740 -20.017125 0.000000 0.000000 0.000000 -2.489664 5.202491 5.908268 -4.493269 4.347580 13.027007 6.744919 4.303578 -14.842904 12.462653 -0.693438 -10.690132 -1.653064 -0.056268 -9.121427 0.000000 0.000000 0.000000 -3.689574 13.303909 17.758039 -78.946471 -5.311605 -28.104928 -143.302582 -69.227968 178.498702 9.717240 -6.423587 -0.778887 9.912697 -6.303687 -0.000000 0.000000 0.000000 0.000000 0.000000 0.000000 0.000000 -0.894124 -14.847162 2.635752 56.919896 12.434241 16.876091 49.459119 58.305720 0.132541 1.058927 4.746714 0.066155 1.057720 4.748658 0.000000 0.000000 0.000000 0.000000 0.000000 0.000000 0.000000 
-0.028719 17.219901 0.120359 0.029480 -19.962409 4.325130 0.955469 14.113538 10.832523 -20.917655 -16.642446 -9.094752 23.923305 -21.698428 -28.550334 -3.285536 9.982925 81.613714 0.000000 0.000000 0.000000 0.802568 -27.858291 -12.288920 46.077526 13.875021 -2.297293 -23.782008 4.886708 38.779330 -1.911977 14.303250 -21.163245 0.000000 0.000000 0.000000 -2.703179 5.078187 6.656168 -4.484758 4.236000 11.810559 6.741024 4.160531 -13.943570 12.252674 -0.714776 -10.282615 -1.656276 -0.053633 -8.707076 0.000000 0.000000 0.000000 -3.261799 12.881620 17.964957 -79.239874 -5.438107 -27.985679 -143.337777 -69.538181 178.480782 9.988532 -6.650689 -0.788236 10.188263 -6.528416 -0.000000 0.000000 0.000000 0.000000 0.000000 0.000000 0.000000 -1.166757 -14.700029 2.566329 57.491231 12.568558 16.970372 49.690823 58.937326 0.126745 0.993941 4.469957 0.063277 0.992953 4.471745 0.000000 0.000000 0.000000 0.000000 0.000000 0.000000 0.000000 
-0.023166 17.247588 0.272108 0.125793 -19.648007 4.109689 1.978783 13.836095 10.038634 -22.728021 -16.058300 -7.411600 23.428745 -21.527597 -27.782999 -3.071205 9.698113 80.008208 0.000000 0.000000 0.000000 0.102014 -26.998977 -12.465545 45.116351 12.985429 -1.871444 -22.460302 3.936113 38.570633 -1.788955 14.208187 -22.245927 0.000000 0.000000 0.000000 -2.899740 4.937989 7.406897 -4.444108 4.110362 10.633368 6.721694 4.005387 -13.061635 12.029127 -0.733996 -9.891422 -1.649880 -0.050066 -8.283604 0.000000 0.000000 0.000000 -2.828070 12.451931 18.166344 -79.534385 -5.566245 -27.853423 -143.375010 -69.858352 178.462517 10.262140 -6.881827 -0.797781 10.466361 -6.756990 -0.000000 0.000000 0.000000 0.000000 0.000000 0.000000 0.000000 -1.452206 -14.563948 2.488017 58.066792 12.704818 17.068035 49.925772 59.570256 0.121507 0.931486 4.185144 0.060677 0.930740 4.186780 0.000000 0.000000 0.000000 0.000000 0.000000 0.000000 0.000000 
-0.015390 17.276648 0.422841 0.052296 -18.586401 3.504266 3.095514 13.337175 9.246008 -24.381328 -15.234597 -5.420890 22.540177 -21.357999 -27.054427 -2.632166 9.506075 78.493600 0.000000 0.000000 0.000000 -1.005894 -24.962945 -13.683788 43.863466 10.556804 -0.183298 -20.488981 2.154134 37.561779 -1.344375 13.481529 -23.508142 0.000000 0.000000 0.000000 -2.893098 4.402290 8.813668 -4.310958 3.620083 9.409614 6.235411 3.568533 -12.641340 12.255496 -0.729038 -9.331854 -1.430997 -0.014927 -7.829022 0.000000 0.000000 0.000000 -1.821718 12.343113 18.489024 -79.801142 -5.491063 -27.684049 -143.319673 -70.141636 178.443110 10.537818 -7.119473 -0.808003 10.746994 -6.991618 -0.000000 0.000000 0.000000 0.000000 0.000000 0.000000 0.000000 -3.316641 -15.452378 1.182926 59.846273 15.239770 10.476924 55.669515 46.128591 0.048811 0.853473 3.727598 0.024330 0.851203 3.728874 0.000000 0.000000 0.000000 0.000000 0.000000 0.000000 0.000000 
-0.005958 17.306672 0.572194 -0.050828 -17.350731 2.855903 4.128604 12.738426 8.391327 -25.850729 -14.323753 -3.451735 21.526531 -21.143451 -26.270948 -2.141910 9.382202 76.996024 0.000000 0.000000 0.000000 -2.087239 -22.606014 -14.969081 42.386060 7.934284 1.659027 -18.261481 0.265594 36.231606 -0.893954 12.679357 -24.677928 0.000000 0.000000 0.000000 -2.842526 3.812828 10.287042 -4.148478 3.080022 8.195362 5.794903 3.114610 -12.705651 12.423691 -0.739343 -8.368468 -1.263915 0.007572 -7.254785 0.000000 0.000000 0.000000 -0.769919 12.130699 19.081925 -80.090441 -5.185562 -27.525925 -143.292378 -70.440526 178.423224 10.819188 -7.363234 -0.818488 11.033587 -7.232137 -0.000000 0.000000 0.000000 0.000000 0.000000 0.000000 0.000000 -5.127207 -16.697064 -1.177913 61.186495 18.734180 5.194315 58.434219 29.031236 -0.004937 0.642239 2.806551 -0.002506 0.640254 2.807442 0.000000 0.000000 0.000000 0.000000 0.000000 0.000000 0.000000 
0.005575 17.337156 0.720348 -0.155943 -16.194574 2.310546 5.058268 12.129541 7.463080 -27.159922 -13.387416 -1.627068 20.479724 -20.860748 -25.418666 -1.651614 9.323288 75.502955 0.000000 0.000000 0.000000 -2.992444 -20.369595 -15.923370 40.778592 5.623994 3.239413 -15.922067 -1.429384 34.756765 -0.546112 12.048661 -25.740586 0.000000 0.000000 0.000000 -2.865691 3.336356 11.583830 -3.762451 2.661917 6.911589 5.552463 2.748954 -12.348198 12.288401 -0.781353 -7.614889 -1.313886 -0.005861 -6.615889 0.000000 0.000000 0.000000 -0.154434 11.658773 19.545639 -80.384440 -5.029774 -27.397354 -143.303665 -70.783207 178.401269 11.110685 -7.609144 -0.830034 11.330636 -7.474556 -0.000000 0.000000 0.000000 0.000000 0.000000 0.000000 0.000000 -5.964299 -17.209737 -2.541352 61.938324 20.514497 3.876783 58.976661 21.366852 -0.017266 0.641098 2.566010 -0.008661 0.639378 2.566818 0.000000 0.000000 0.000000 0.000000 0.000000 0.000000 0.000000 
0.018815 17.367797 0.867015 -0.254812 -14.947384 1.754102 5.878987 11.454618 6.489173 -28.303445 -12.401445 0.131340 19.353157 -20.520574 -24.524314 -1.139059 9.327784 74.047694 0.000000 0.000000 0.000000 -3.806712 -17.955386 -16.837479 38.980489 3.276579 4.890493 -13.407531 -3.086370 33.024319 -0.208866 11.390341 -26.675569 0.000000 0.000000 0.000000 -2.857430 2.849845 12.862714 -3.374091 2.246732 5.661326 5.316455 2.381210 -12.123281 12.096965 -0.824414 -6.739594 -1.375601 -0.021838 -5.945905 0.000000 0.000000 0.000000 0.450664 11.070244 20.091699 -80.680778 -4.830611 -27.274490 -143.329226 -71.147675 178.378134 11.406084 -7.858318 -0.842219 11.631957 -7.719942 -0.000000 0.000000 0.000000 0.000000 0.000000 0.000000 0.000000 -6.723903 -17.762517 -4.200258 62.799144 22.482554 3.065582 59.224689 13.010113 -0.025674 0.665654 2.263199 -0.012855 0.664331 2.263908 -0.000000 0.000000 0.000000 0.000000 0.000000 0.000000 0.000000 
0.032951 17.398241 1.012178 -0.332763 -13.610973 1.239439 6.575975 10.694917 5.441065 -29.293151 -11.389158 1.803222 18.182476 -20.121840 -23.589821 -0.624866 9.385552 72.632017 0.000000 0.000000 0.000000 -4.511584 -15.423001 -17.698598 37.010306 0.946041 6.571744 -10.741392 -4.662387 31.061680 0.111999 10.709279 -27.469723 0.000000 0.000000 0.000000 -2.817742 2.432813 14.207106 -2.860234 1.941413 4.107084 4.724819 2.079200 -11.475970 10.895503 -0.378534 -4.852734 0.424352 0.299676 -7.695778 0.000000 0.000000 0.000000 1.132092 10.090095 20.613990 -80.895707 -4.884568 -27.142686 -143.435331 -71.554133 178.356765 11.685499 -8.107902 -0.853496 11.917380 -7.965791 -0.000000 0.000000 0.000000 0.000000 0.000000 0.000000 0.000000 -6.883712 -18.620843 -5.850163 63.671241 24.134690 2.705579 60.659783 9.739379 0.585890 -2.331083 -11.071420 0.294514 -2.383436 -11.072152 -0.000000 0.000000 0.000000 0.000000 0.000000 0.000000 0.000000 
0.048007 17.428210 1.155585 -0.386492 -12.232348 0.737222 7.157292 9.882393 4.364453 -30.138748 -10.362321 3.388150 16.988493 -19.667273 -22.626027 -0.117030 9.489302 71.265014 0.000000 0.000000 0.000000 -5.088622 -12.816591 -18.445956 34.887780 -1.325494 8.276027 -7.974703 -6.102639 28.906027 0.413078 10.017231 -28.106982 0.000000 0.000000 0.000000 -2.766005 2.054421 15.473277 -2.355412 1.687384 2.683473 4.213659 1.816007 -11.002787 9.691758 0.051610 -2.979167 2.040365 0.622902 -9.278655 0.000000 0.000000 0.000000 1.730493 8.972349 21.200310 -81.112486 -4.918621 -26.985651 -143.548377 -71.979769 178.335032 11.964739 -8.360464 -0.864997 12.202927 -8.214368 -0.000000 0.000000 0.000000 0.000000 0.000000 0.000000 0.000000 -6.867562 -19.423644 -7.665056 64.748277 25.773665 2.990723 61.576923 6.157242 1.936930 -4.480268 -23.436568 0.990637 -4.821726 -23.430743 0.000000 0.000000 0.000000 0.000000 0.000000 0.000000 0.000000 
